<svg width="240" height="240" viewBox="0 0 240 240" fill="none" xmlns="http://www.w3.org/2000/svg">
  <!-- Outer hexagon layers -->
  <path d="M120 20 L180 60 L180 140 L120 180 L60 140 L60 60 Z" stroke="currentColor" stroke-width="3" fill="none"/>
  <path d="M120 30 L170 65 L170 135 L120 170 L70 135 L70 65 Z" stroke="currentColor" stroke-width="3" fill="none"/>
  <path d="M120 40 L160 70 L160 130 L120 160 L80 130 L80 70 Z" stroke="currentColor" stroke-width="3" fill="none"/>
  
  <!-- Inner hexagon -->
  <path d="M120 80 L140 92 L140 108 L120 120 L100 108 L100 92 Z" stroke="currentColor" stroke-width="3" fill="none"/>
  
  <!-- Center diamond -->
  <path d="M120 95 L125 100 L120 105 L115 100 Z" fill="currentColor"/>
  
  <!-- Connecting lines -->
  <line x1="120" y1="40" x2="120" y2="80" stroke="currentColor" stroke-width="2"/>
  <line x1="160" y1="70" x2="140" y2="92" stroke="currentColor" stroke-width="2"/>
  <line x1="160" y1="130" x2="140" y2="108" stroke="currentColor" stroke-width="2"/>
  <line x1="120" y1="160" x2="120" y2="120" stroke="currentColor" stroke-width="2"/>
  <line x1="80" y1="130" x2="100" y2="108" stroke="currentColor" stroke-width="2"/>
  <line x1="80" y1="70" x2="100" y2="92" stroke="currentColor" stroke-width="2"/>
</svg>
